<?xml version="1.0" encoding="UTF-8"?>
<svg width="115px" height="16px" viewBox="0 0 115 16" version="1.1" xmlns="http://www.w3.org/2000/svg" xmlns:xlink="http://www.w3.org/1999/xlink">
    <!-- Generator: Sketch 49 (51002) - http://www.bohemiancoding.com/sketch -->
    <title>PACKSION Copy 5</title>
    <desc>Created with Sketch.</desc>
    <defs></defs>
    <g id="Symbols" stroke="none" stroke-width="1" fill="none" fill-rule="evenodd" opacity="0.329999983">
        <g id="Footer" transform="translate(-663.000000, -35.000000)" fill="#FFFFFF">
            <g id="PACKSION-Copy-5">
                <path d="M663,35.1772853 L669.284153,35.1772853 C673.748069,35.1772853 675.264933,37.8808864 675.264933,40.8060942 C675.264933,45.0831025 672.556246,46.7894737 668.677407,46.7894737 L666.098738,46.7894737 L666.098738,50.800554 L663,50.800554 L663,35.1772853 Z M666.098738,44.1523546 L668.374034,44.1523546 C670.844357,44.1523546 672.014509,42.8891967 672.014509,41.0498615 C672.014509,39.432133 671.191068,37.9252078 668.785755,37.9252078 L666.098738,37.9252078 L666.098738,44.1523546 Z M688.865618,50.800554 L687.478771,47.6315789 L680.652881,47.6315789 L679.287703,50.800554 L676.015609,50.800554 L683.296559,35.1772853 L684.835093,35.1772853 L692.137712,50.800554 L688.865618,50.800554 Z M684.171095,39.8310249 L681.874129,44.9944598 L686.489731,44.9944598 L684.171095,39.8310249 Z M701.550028,47.9861496 C703.153571,47.9861496 704.583757,47.1883657 705.450537,45.9252078 L707.855851,48.0083102 C706.360656,49.8254848 704.107028,50.9778393 701.550028,50.9778393 C697.107782,50.9778393 693.488977,47.4099723 693.488977,43 C693.488977,38.5900277 697.107782,35 701.550028,35 C704.107028,35 706.360656,36.1745152 707.855851,37.9916898 L705.450537,40.0747922 C704.583757,38.8116343 703.153571,38.0138504 701.550028,38.0138504 C698.884681,38.0138504 696.696062,40.0083102 696.696062,43 C696.696062,45.9473684 698.884681,47.9861496 701.550028,47.9861496 Z M716.957038,42.8891967 L723.826267,50.800554 L719.752402,50.800554 L714.941775,45.3490305 L713.186546,47.2548476 L713.186546,50.800554 L710.174487,50.800554 L710.174487,35.1772853 L713.186546,35.1772853 L713.186546,42.6897507 L719.882419,35.1772853 L723.631242,35.1772853 L716.957038,42.8891967 Z M731.670624,41.5373961 C734.964387,42.2908587 737.218014,43.3545706 737.218014,46.2132964 C737.218014,49.2271468 734.856039,51 731.302242,51 C728.701903,51 727.380064,50.7562327 724.953081,49.5152355 L726.079894,47.0554017 C728.095157,48.0526316 729.503674,48.2520776 731.41059,48.2520776 C733.079141,48.2520776 734.075937,47.6315789 734.075937,46.4792244 C734.075937,45.4155125 733.057471,44.9501385 730.825513,44.4182825 C727.683437,43.6869806 725.148106,42.7783934 725.148106,39.6980609 C725.148106,36.9501385 727.293386,35 730.782174,35 C733.10081,35 735.137743,35.598338 736.632938,36.2631579 L735.376107,38.7894737 C734.032598,38.2132964 732.147353,37.7479224 730.717166,37.7479224 C729.156963,37.7479224 728.290183,38.4570637 728.290183,39.432133 C728.290183,40.5401662 729.373657,41.0055402 731.670624,41.5373961 Z M742.852082,35.1772853 L742.852082,50.800554 L739.731675,50.800554 L739.731675,35.1772853 L742.852082,35.1772853 Z M753.522231,35.1408961 C757.772558,35.1408961 761.185079,38.6455701 761.185079,42.9774342 C761.185079,47.3092984 757.772558,50.8139724 753.522231,50.8139724 C749.292339,50.8139724 745.859383,47.3092984 745.859383,42.9774342 C745.859383,38.6455701 749.292339,35.1408961 753.522231,35.1408961 Z M774.879593,35.1772853 L778,35.1772853 L778,50.800554 L776.483135,50.800554 L767.360279,40.9612188 L767.360279,50.800554 L764.261541,50.800554 L764.261541,35.1772853 L765.778406,35.1772853 L774.879593,45.0166205 L774.879593,35.1772853 Z M750.572677,39.7889955 L752.756465,39.7889955 C752.880149,39.7889955 752.980414,39.8892608 752.980414,40.0129443 L752.980414,42.256383 C752.980414,42.3800666 752.880149,42.4803319 752.756465,42.4803319 L750.572677,42.4803319 C750.448994,42.4803319 750.348729,42.3800666 750.348729,42.256383 L750.348729,40.0129443 C750.348729,39.8892608 750.448994,39.7889955 750.572677,39.7889955 Z M750.572677,43.5093722 L752.756465,43.5093722 C752.880149,43.5093722 752.980414,43.6096375 752.980414,43.733321 L752.980414,45.9767597 C752.980414,46.1004433 752.880149,46.2007085 752.756465,46.2007085 L750.572677,46.2007085 C750.448994,46.2007085 750.348729,46.1004433 750.348729,45.9767597 L750.348729,43.733321 C750.348729,43.6096375 750.448994,43.5093722 750.572677,43.5093722 Z M754.210595,39.7889955 L756.394383,39.7889955 C756.518066,39.7889955 756.618332,39.8892608 756.618332,40.0129443 L756.618332,42.256383 C756.618332,42.3800666 756.518066,42.4803319 756.394383,42.4803319 L754.210595,42.4803319 C754.086912,42.4803319 753.986646,42.3800666 753.986646,42.256383 L753.986646,40.0129443 C753.986646,39.8892608 754.086912,39.7889955 754.210595,39.7889955 Z M754.210595,43.5093722 L756.394383,43.5093722 C756.518066,43.5093722 756.618332,43.6096375 756.618332,43.733321 L756.618332,45.9767597 C756.618332,46.1004433 756.518066,46.2007085 756.394383,46.2007085 L754.210595,46.2007085 C754.086912,46.2007085 753.986646,46.1004433 753.986646,45.9767597 L753.986646,43.733321 C753.986646,43.6096375 754.086912,43.5093722 754.210595,43.5093722 Z"></path>
            </g>
        </g>
    </g>
</svg>