<?xml version="1.0" encoding="UTF-8"?>
<svg width="144px" height="20px" viewBox="0 0 144 20" version="1.1" xmlns="http://www.w3.org/2000/svg" xmlns:xlink="http://www.w3.org/1999/xlink">
    <!-- Generator: Sketch 49 (51002) - http://www.bohemiancoding.com/sketch -->
    <title>PACKSION Copy 5</title>
    <desc>Created with Sketch.</desc>
    <defs></defs>
    <g id="Symbols" stroke="none" stroke-width="1" fill="none" fill-rule="evenodd">
        <g id="Top" transform="translate(-125.000000, -52.000000)" fill="#FFFFFF">
            <g id="PACKSION-Copy-5">
                <path d="M125,52.2216066 L132.868852,52.2216066 C138.458451,52.2216066 140.357829,55.601108 140.357829,59.2576177 C140.357829,64.6038781 136.966083,66.7368421 132.109101,66.7368421 L128.880158,66.7368421 L128.880158,71.7506925 L125,71.7506925 L125,52.2216066 Z M128.880158,63.4404432 L131.729226,63.4404432 C134.822499,63.4404432 136.287733,61.8614958 136.287733,59.5623269 C136.287733,57.5401662 135.256642,55.6565097 132.244771,55.6565097 L128.880158,55.6565097 L128.880158,63.4404432 Z M157.388253,71.7506925 L155.651678,67.7894737 L147.104477,67.7894737 L145.395036,71.7506925 L141.297806,71.7506925 L150.414821,52.2216066 L152.341334,52.2216066 L161.485483,71.7506925 L157.388253,71.7506925 Z M151.509893,58.0387812 L148.633691,64.4930748 L154.413228,64.4930748 L151.509893,58.0387812 Z M173.27134,68.232687 C175.279254,68.232687 177.070096,67.2354571 178.155455,65.6565097 L181.167326,68.2603878 C179.295082,70.531856 176.473149,71.9722992 173.27134,71.9722992 C167.708875,71.9722992 163.177501,67.5124654 163.177501,62 C163.177501,56.4875346 167.708875,52 173.27134,52 C176.473149,52 179.295082,53.468144 181.167326,55.7396122 L178.155455,58.3434903 C177.070096,56.7645429 175.279254,55.767313 173.27134,55.767313 C169.933861,55.767313 167.19333,58.2603878 167.19333,62 C167.19333,65.6842105 169.933861,68.232687 173.27134,68.232687 Z M192.563595,61.8614958 L201.165065,71.7506925 L196.063878,71.7506925 L190.040136,64.9362881 L187.842284,67.3185596 L187.842284,71.7506925 L184.070661,71.7506925 L184.070661,52.2216066 L187.842284,52.2216066 L187.842284,61.6121884 L196.226682,52.2216066 L200.920859,52.2216066 L192.563595,61.8614958 Z M210.987564,60.1717452 C215.111928,61.1135734 217.933861,62.4432133 217.933861,66.0166205 C217.933861,69.7839335 214.976258,72 210.526286,72 C207.270209,72 205.615037,71.6952909 202.576032,70.1440443 L203.986998,67.0692521 C206.510458,68.3157895 208.274166,68.565097 210.661956,68.565097 C212.751272,68.565097 213.999435,67.7894737 213.999435,66.3490305 C213.999435,65.0193906 212.724138,64.4376731 209.929339,63.7728532 C205.994912,62.8587258 202.820237,61.7229917 202.820237,57.8725762 C202.820237,54.4376731 205.506501,52 209.875071,52 C212.778406,52 215.328999,52.7479224 217.201244,53.5789474 L215.627473,56.7368421 C213.945167,56.0166205 211.584511,55.434903 209.793669,55.434903 C207.840023,55.434903 206.754664,56.3213296 206.754664,57.5401662 C206.754664,58.9252078 208.111362,59.5069252 210.987564,60.1717452 Z M224.988694,52.2216066 L224.988694,71.7506925 L221.081402,71.7506925 L221.081402,52.2216066 L224.988694,52.2216066 Z M238.349577,52.1761201 C243.671725,52.1761201 247.944795,56.5569626 247.944795,61.9717928 C247.944795,67.386623 243.671725,71.7674655 238.349577,71.7674655 C233.053016,71.7674655 228.754358,67.386623 228.754358,61.9717928 C228.754358,56.5569626 233.053016,52.1761201 238.349577,52.1761201 Z M265.092708,52.2216066 L269,52.2216066 L269,71.7506925 L267.100622,71.7506925 L255.677219,59.4515235 L255.677219,71.7506925 L251.79706,71.7506925 L251.79706,52.2216066 L253.696439,52.2216066 L265.092708,64.5207756 L265.092708,52.2216066 Z M234.655735,57.9862444 L237.391191,57.9862444 C237.545795,57.9862444 237.671127,58.111576 237.671127,58.2661804 L237.671127,61.0704788 C237.671127,61.2250832 237.545795,61.3504148 237.391191,61.3504148 L234.655735,61.3504148 C234.501131,61.3504148 234.375799,61.2250832 234.375799,61.0704788 L234.375799,58.2661804 C234.375799,58.111576 234.501131,57.9862444 234.655735,57.9862444 Z M234.655735,62.6367153 L237.391191,62.6367153 C237.545795,62.6367153 237.671127,62.7620469 237.671127,62.9166513 L237.671127,65.7209497 C237.671127,65.8755541 237.545795,66.0008857 237.391191,66.0008857 L234.655735,66.0008857 C234.501131,66.0008857 234.375799,65.8755541 234.375799,65.7209497 L234.375799,62.9166513 C234.375799,62.7620469 234.501131,62.6367153 234.655735,62.6367153 Z M239.211041,57.9862444 L241.946497,57.9862444 C242.101101,57.9862444 242.226433,58.111576 242.226433,58.2661804 L242.226433,61.0704788 C242.226433,61.2250832 242.101101,61.3504148 241.946497,61.3504148 L239.211041,61.3504148 C239.056437,61.3504148 238.931105,61.2250832 238.931105,61.0704788 L238.931105,58.2661804 C238.931105,58.111576 239.056437,57.9862444 239.211041,57.9862444 Z M239.211041,62.6367153 L241.946497,62.6367153 C242.101101,62.6367153 242.226433,62.7620469 242.226433,62.9166513 L242.226433,65.7209497 C242.226433,65.8755541 242.101101,66.0008857 241.946497,66.0008857 L239.211041,66.0008857 C239.056437,66.0008857 238.931105,65.8755541 238.931105,65.7209497 L238.931105,62.9166513 C238.931105,62.7620469 239.056437,62.6367153 239.211041,62.6367153 Z"></path>
            </g>
        </g>
    </g>
</svg>