<?xml version="1.0" encoding="UTF-8"?>
<svg width="15px" height="16px" viewBox="0 0 15 16" version="1.1" xmlns="http://www.w3.org/2000/svg" xmlns:xlink="http://www.w3.org/1999/xlink">
    <!-- Generator: Sketch 49 (51002) - http://www.bohemiancoding.com/sketch -->
    <title>Fill 1</title>
    <desc>Created with Sketch.</desc>
    <defs></defs>
    <g id="Symbols" stroke="none" stroke-width="1" fill="none" fill-rule="evenodd">
        <g id="Top" transform="translate(-1296.000000, -55.000000)" fill="#FFFFFF">
            <g id="Fill-1">
                <path d="M1310.77139,69.5725194 L1307.07445,65.6134199 C1308.02528,64.4488963 1308.54621,62.9842015 1308.54621,61.4594725 C1308.54621,57.8977926 1305.73225,55 1302.27225,55 C1298.81396,55 1296,57.8977926 1296,61.4594725 C1296,65.0222056 1298.81396,67.9199982 1302.27225,67.9199982 C1303.57082,67.9199982 1304.80938,67.5169614 1305.86657,66.7502085 L1309.59283,70.7409049 C1309.74863,70.9083688 1309.95762,71 1310.18297,71 C1310.39468,71 1310.59548,70.9164436 1310.74889,70.7644271 C1311.07515,70.4421381 1311.08436,69.9085005 1310.77139,69.5725194 Z M1302.27225,56.6855224 C1304.82915,56.6855224 1306.90945,58.8277966 1306.90945,61.4594725 C1306.90945,64.0925528 1304.82915,66.2344758 1302.27225,66.2344758 C1299.71671,66.2344758 1297.63676,64.0925528 1297.63676,61.4594725 C1297.63676,58.8277966 1299.71671,56.6855224 1302.27225,56.6855224 Z"></path>
            </g>
        </g>
    </g>
</svg>