<?xml version="1.0" encoding="UTF-8"?>
<svg width="18px" height="14px" viewBox="0 0 18 14" version="1.1" xmlns="http://www.w3.org/2000/svg" xmlns:xlink="http://www.w3.org/1999/xlink">
    <!-- Generator: Sketch 49 (51002) - http://www.bohemiancoding.com/sketch -->
    <title>correct-symbol (1)</title>
    <desc>Created with Sketch.</desc>
    <defs></defs>
    <g id="Web-UI" stroke="none" stroke-width="1" fill="none" fill-rule="evenodd">
        <g id="Tercihler" transform="translate(-145.000000, -132.000000)" fill="#000000">
            <g id="genel-bilgiler" transform="translate(139.000000, 124.000000)">
                <path d="M23.6750176,9.9323251 L22.0951825,8.32979891 C21.8787057,8.11011378 21.6157265,8 21.3058885,8 C20.9962287,8 20.7325368,8.11011378 20.5160601,8.32979891 L12.897859,16.0728409 L9.48411811,12.5958491 C9.26692864,12.376164 9.00377127,12.2660502 8.69411148,12.2660502 C8.38445168,12.2660502 8.12129431,12.376164 7.90428301,12.5958491 L6.32498243,14.1983753 C6.10850565,14.4187837 6,14.6856604 6,15.0000904 C6,15.3143396 6.10850565,15.5819396 6.32498243,15.8016247 L12.108565,21.6702011 C12.3250418,21.8906095 12.5881992,22 12.897859,22 C13.2075188,22 13.4706762,21.8906095 13.6876874,21.6702011 L23.6750176,11.5355745 C23.8914944,11.315347 24,11.0482894 24,10.7340402 C24,10.419791 23.8914944,10.1527335 23.6750176,9.9323251 Z" id="correct-symbol-(1)"></path>
            </g>
        </g>
    </g>
</svg>