<?xml version="1.0" encoding="UTF-8"?>
<svg width="20px" height="20px" viewBox="0 0 20 20" version="1.1" xmlns="http://www.w3.org/2000/svg" xmlns:xlink="http://www.w3.org/1999/xlink">
    <!-- Generator: Sketch 49 (51002) - http://www.bohemiancoding.com/sketch -->
    <title>edit (5)</title>
    <desc>Created with Sketch.</desc>
    <defs></defs>
    <g id="Web-UI" stroke="none" stroke-width="1" fill="none" fill-rule="evenodd" opacity="0.5">
        <g id="Adreslerim" transform="translate(-781.000000, -402.000000)" fill="#000000">
            <g id="edit-(5)" transform="translate(781.000000, 402.000000)">
                <path d="M19.2865336,19 L0.696898895,19 C0.306287171,19 0,19.2316255 0,19.499695 C0,19.7683745 0.323704333,20 0.696898895,20 L19.3039507,20 C19.6947749,20 20,19.7683745 20,19.499695 C20,19.2316255 19.6773577,19 19.2865336,19 Z" id="Fill-1"></path>
                <path d="M0.0164905407,11.9997758 L0,15.2911369 C0,15.4765806 0.0676535004,15.6620242 0.203171919,15.7972567 C0.338690337,15.9324892 0.506978419,16 0.693659797,16 L3.97485457,15.9835442 C4.16069028,15.9835442 4.32982403,15.9158225 4.46534245,15.780801 L15.7968809,4.47232487 C16.0677064,4.2029147 16.0677064,3.76367274 15.7968809,3.47675197 L12.5495129,0.202690542 C12.2786875,-0.0675635139 11.8393626,-0.0675635139 11.5520466,0.202690542 L9.28586577,2.48139004 L0.219662459,11.5103228 C0.101480251,11.6453443 0.0164905407,11.8143322 0.0164905407,11.9997758 Z M12.059025,1.68771653 L14.3425421,3.96641603 L13.0575484,5.24869874 L10.7740314,2.96999924 L12.059025,1.68771653 Z M1.42051209,12.3037853 L9.77550798,3.96641603 L12.059025,6.24511552 L3.70402915,14.5651851 L1.40402155,14.5824848 L1.42051209,12.3037853 Z" id="Fill-2"></path>
            </g>
        </g>
    </g>
</svg>