<?xml version="1.0" encoding="UTF-8"?>
<svg width="16px" height="10px" viewBox="0 0 16 10" version="1.1" xmlns="http://www.w3.org/2000/svg" xmlns:xlink="http://www.w3.org/1999/xlink">
    <!-- Generator: Sketch 49 (51002) - http://www.bohemiancoding.com/sketch -->
    <title>angle-arrow-down</title>
    <desc>Created with Sketch.</desc>
    <defs></defs>
    <g id="Web-UI" stroke="none" stroke-width="1" fill="none" fill-rule="evenodd">
        <g id="urun-secim" transform="translate(-1296.000000, -678.000000)" fill="#000000">
            <path d="M1311.84036,679.030765 L1311.03823,678.171882 C1310.93148,678.05747 1310.80849,678 1310.66927,678 C1310.53079,678 1310.4078,678.05747 1310.30129,678.171882 L1303.99988,684.92405 L1297.69969,678.171882 C1297.5922,678.05747 1297.46921,678 1297.33073,678 C1297.19151,678 1297.06852,678.05747 1296.96177,678.171882 L1296.16038,679.030765 C1296.05387,679.144913 1296,679.276725 1296,679.426199 C1296,679.575409 1296.05387,679.707221 1296.16038,679.821633 L1303.63091,687.828118 C1303.73865,687.943321 1303.86164,688 1303.99988,688 C1304.13935,688 1304.26233,687.943321 1304.36884,687.828118 L1311.84036,679.821633 C1311.94712,679.707221 1312,679.575409 1312,679.426199 C1312,679.276725 1311.94712,679.144913 1311.84036,679.030765 Z" id="angle-arrow-down" transform="translate(1304.000000, 683.000000) scale(1, -1) translate(-1304.000000, -683.000000) "></path>
        </g>
    </g>
</svg>