<?xml version="1.0" encoding="UTF-8"?>
<svg width="16px" height="10px" viewBox="0 0 16 10" version="1.1" xmlns="http://www.w3.org/2000/svg" xmlns:xlink="http://www.w3.org/1999/xlink">
    <!-- Generator: Sketch 49 (51002) - http://www.bohemiancoding.com/sketch -->
    <title>angle-arrow-down</title>
    <desc>Created with Sketch.</desc>
    <defs></defs>
    <g id="Web-UI" stroke="none" stroke-width="1" fill="none" fill-rule="evenodd">
        <g id="urun-secim" transform="translate(-1296.000000, -613.000000)" fill="#000000">
            <g id="tab1-copy" transform="translate(123.000000, 591.000000)">
                <path d="M1188.84036,23.0307648 L1188.03823,22.171882 C1187.93148,22.0574697 1187.80849,22 1187.66927,22 C1187.53079,22 1187.4078,22.0574697 1187.30129,22.171882 L1180.99988,28.9240503 L1174.69969,22.171882 C1174.5922,22.0574697 1174.46921,22 1174.33073,22 C1174.19151,22 1174.06852,22.0574697 1173.96177,22.171882 L1173.16038,23.0307648 C1173.05387,23.1449134 1173,23.2767248 1173,23.4261988 C1173,23.5754093 1173.05387,23.7072206 1173.16038,23.8216329 L1180.63091,31.828118 C1180.73865,31.9433211 1180.86164,32 1180.99988,32 C1181.13935,32 1181.26233,31.9433211 1181.36884,31.828118 L1188.84036,23.8216329 C1188.94712,23.7072206 1189,23.5754093 1189,23.4261988 C1189,23.2767248 1188.94712,23.1449134 1188.84036,23.0307648 Z" id="angle-arrow-down"></path>
            </g>
        </g>
    </g>
</svg>