<?xml version="1.0" encoding="UTF-8"?>
<svg width="30px" height="30px" viewBox="0 0 30 30" version="1.1" xmlns="http://www.w3.org/2000/svg" xmlns:xlink="http://www.w3.org/1999/xlink">
    <!-- Generator: Sketch 49 (51002) - http://www.bohemiancoding.com/sketch -->
    <title>star-half-empty</title>
    <desc>Created with Sketch.</desc>
    <defs></defs>
    <g id="Web-UI" stroke="none" stroke-width="1" fill="none" fill-rule="evenodd">
        <g id="Home" transform="translate(-707.000000, -804.000000)" fill="#4A4A4A">
            <path d="M736.964627,815.408573 C736.856741,815.061989 736.532529,814.844467 735.992268,814.756008 L726.940059,813.376051 L722.883536,804.774957 C722.631801,804.258416 722.336635,804 722.000805,804 C721.651696,804 721.357637,804.258416 721.116691,804.774957 L717.060168,813.376051 L708.009065,814.756008 C707.467697,814.844467 707.143762,815.061989 707.035599,815.408573 C706.927436,815.755158 707.065752,816.130165 707.450546,816.532435 L714.013073,823.22456 L712.462277,832.676599 C712.402802,833.0925 712.438487,833.416462 712.571547,833.649935 C712.703223,833.883118 712.907377,834 713.184009,834 C713.388439,834 713.628279,833.924012 713.90491,833.772327 L722.000805,829.310814 L730.096423,833.772327 C730.373054,833.924012 730.612894,834 730.818431,834 C731.095062,834 731.299216,833.883118 731.430893,833.649935 C731.562846,833.416462 731.598531,833.0925 731.539056,832.676599 L729.988537,823.22456 L736.532529,816.532435 C736.930048,816.130165 737.073897,815.755158 736.964627,815.408573 Z" id="star-half-empty"></path>
        </g>
    </g>
</svg>